<svg width="32" height="32" viewBox="0 0 32 32" fill="none" xmlns="http://www.w3.org/2000/svg">
<defs>
<radialGradient id="paint0_radial" cx="0" cy="0" r="1" gradientUnits="userSpaceOnUse" gradientTransform="translate(20.3946 27.8073) rotate(-107.967) scale(27.559 23.2441)">
<stop stop-color="#4B4B4B"/>
<stop offset="1" stop-color="#8B8B8B"/>
</radialGradient>
<radialGradient id="paint1_radial" cx="0" cy="0" r="1" gradientUnits="userSpaceOnUse" gradientTransform="translate(20.3946 27.8073) rotate(-107.967) scale(27.559 23.2441)">
<stop stop-color="#4B4B4B"/>
<stop offset="1" stop-color="#8B8B8B"/>
</radialGradient>
</defs>
<path d="M15 13.25C15 12.8358 15.3358 12.5 15.75 12.5H16.75V11.5C16.75 11.0858 17.0858 10.75 17.5 10.75C17.9142 10.75 18.25 11.0858 18.25 11.5V12.5H19.25C19.6642 12.5 20 12.8358 20 13.25C20 13.6642 19.6642 14 19.25 14H18.25V15C18.25 15.4142 17.9142 15.75 17.5 15.75C17.0858 15.75 16.75 15.4142 16.75 15V14H15.75C15.3358 14 15 13.6642 15 13.25Z" fill="url(#paint0_radial)"/>
<path fill-rule="evenodd" clip-rule="evenodd" d="M10.542 28.1035H24.6465C25.3877 28.1035 25.9141 27.5771 25.9141 26.8467C25.9141 26.1592 25.4414 25.7725 24.915 25.4609C23.6689 24.7734 23.4326 22.8076 24.8076 21.626C25.5918 21.0029 25.8926 20.4658 25.8926 19.3594V8.24121C25.8926 5.77051 24.5283 4.40625 22.0791 4.40625H10.5527C8.09277 4.40625 6.73926 5.77051 6.73926 8.24121V24.3008C6.73926 26.75 8.09277 28.1035 10.542 28.1035ZM21.7031 7.28516C22.6055 7.28516 23.0137 7.72559 23.0137 8.57422V18.876C23.0137 19.2734 22.7773 19.499 22.3584 19.499H12.6045V7.28516H21.7031ZM9.61816 19.7676V8.57422C9.61816 7.74707 10.0049 7.2959 10.8643 7.28516V19.499C10.3916 19.5205 9.9834 19.6064 9.61816 19.7676ZM11.1758 25.5791C9.9082 25.5791 9.28516 24.8057 9.28516 23.7959C9.28516 22.8184 9.96191 22.0234 11.2188 22.0234H21.4023C21.4883 22.0234 21.585 22.0234 21.6709 22.002C21.1016 23.1836 21.1338 24.5156 21.7031 25.5791H11.1758Z" fill="url(#paint1_radial)"/>
</svg>
