<svg width="32" height="32" viewBox="0 0 32 32" fill="none" xmlns="http://www.w3.org/2000/svg">
<defs>
<radialGradient id="paint0_radial" cx="0" cy="0" r="1" gradientUnits="userSpaceOnUse" gradientTransform="translate(21.5 28.5) rotate(-110.225) scale(30.3727 40.1914)">
<stop stop-color="#2E7DF3"/>
<stop offset="1" stop-color="#4BBAF8"/>
</radialGradient>
</defs>
<path d="M24.8535 26.135L27.4608 25.8881C29.2977 25.7005 30.1471 24.6733 29.9792 22.8364L28.7447 10.1751C28.5768 8.34802 27.5398 7.46904 25.7028 7.65669L23.0955 7.90359C22.7992 7.93322 22.5326 7.9826 22.2857 8.05174V7.80483C22.2857 5.95799 21.3375 5 19.5006 5H16.6069C14.7501 5 13.802 5.95799 13.802 7.80483V11.4195H9.45651V10.5702C9.45651 8.72332 8.5084 7.76533 6.66155 7.76533H4.79496C2.94811 7.76533 2 8.72332 2 10.5702V23.2018C2 25.0486 2.94811 26.0066 4.79496 26.0066H19.5006C20.7845 26.0066 21.6338 25.5424 22.0289 24.6338C22.4536 25.7597 23.4017 26.2832 24.8535 26.135ZM17.1994 7.78508H18.8981C19.3031 7.78508 19.5006 7.99248 19.5006 8.37765V22.6191C19.5006 23.0141 19.3031 23.2215 18.8981 23.2215H16.597V8.37765C16.597 7.99248 16.8044 7.78508 17.1994 7.78508ZM24.5276 22.7672L23.4115 11.2714C23.372 10.8862 23.5498 10.6689 23.9449 10.6195L25.367 10.4813C25.7621 10.4418 25.9892 10.6294 26.0287 11.0146L27.1447 22.5105C27.1842 22.8956 27.0065 23.1228 26.6114 23.1623L25.1893 23.3005C24.7942 23.3499 24.5671 23.1623 24.5276 22.7672ZM5.38753 23.2215C4.99248 23.2215 4.78508 23.0141 4.78508 22.6191V11.1529C4.78508 10.7677 4.99248 10.5504 5.38753 10.5504H6.06898C6.46403 10.5504 6.67143 10.7677 6.67143 11.1529V23.2215H5.38753ZM10.059 14.2046H13.1996C13.6045 14.2046 13.802 14.412 13.802 14.807V23.2215H9.45651V14.807C9.45651 14.412 9.66391 14.2046 10.059 14.2046ZM10.7009 16.4465H12.6465C13.0317 16.4465 13.3181 16.1502 13.3181 15.7749C13.3181 15.3897 13.0317 15.0934 12.6465 15.0934H10.7009C10.3059 15.0934 10.0195 15.3897 10.0195 15.7749C10.0195 16.1502 10.3157 16.4465 10.7009 16.4465ZM10.7009 22.3327H12.6465C13.0317 22.3327 13.3181 22.0364 13.3181 21.6512C13.3181 21.2759 13.0317 20.9698 12.6465 20.9698H10.7009C10.3157 20.9698 10.0195 21.2759 10.0195 21.6512C10.0195 22.0364 10.3059 22.3327 10.7009 22.3327Z" fill="url(#paint0_radial)"/>
</svg>
