<svg width="200" height="40" viewBox="0 0 200 40" fill="none" xmlns="http://www.w3.org/2000/svg">
<path d="M0 36.3179V3.70445H13.336C17.6389 3.70445 20.6879 4.64481 22.4832 6.52553C23.7655 7.83634 24.4066 9.61733 24.4066 11.8685C24.4066 13.9487 23.908 15.6299 22.9106 16.9122C21.9418 18.1946 16.7128 18.8357 15.2025 18.8357V19.5196C16.3708 19.5196 21.4716 19.8188 22.5259 20.4172C23.5803 21.0156 24.4351 21.8563 25.0905 22.9391C25.7459 24.0219 26.0736 25.2615 26.0736 26.6578C26.0736 29.8493 24.9908 32.2715 22.8251 33.9242C20.7164 35.52 17.7529 36.3179 13.9344 36.3179H0ZM12.6949 16.8695C15.402 16.8695 16.7555 15.8009 16.7555 13.6637C16.7555 12.6094 16.4136 11.8257 15.7297 11.3128C15.2737 10.9709 14.7181 10.7572 14.0627 10.6717C13.4358 10.5862 12.6379 10.5434 11.669 10.5434H7.65112V16.8695H12.6949ZM12.9513 29.4789C14.0342 29.4789 14.9318 29.4076 15.6442 29.2652C16.3851 29.1227 16.9835 28.8662 17.4394 28.4958C18.0948 27.9829 18.4225 27.1565 18.4225 26.0167C18.4225 24.7628 18.0236 23.9222 17.2257 23.4948C16.4563 23.0673 15.2167 22.8536 13.507 22.8536H7.65112V29.4789H12.9513Z" fill="#222222"/>
<path d="M82.4285 36.3179V3.70445H89.6094V16.6985C89.6094 17.3824 89.5809 18.565 89.5239 19.1064C89.4955 19.6478 89.0965 20.3317 88.897 21.1581L89.41 21.3718C90.0654 20.403 90.4928 19.5054 91.2622 18.679L97.3033 12.0822H106.151L97.9445 20.6737C97.5455 21.1011 97.1466 21.4573 96.7476 21.7423C96.3487 21.9987 95.2516 22.1555 95.1661 22.2125V22.8109C95.907 23.3808 96.8331 23.4663 97.3745 24.2072L106.707 36.3179H98.1582L91.8321 27.7264C90.9202 26.4441 89.6379 24.5349 89.125 23.7085L88.6121 23.8795C88.8116 24.7058 89.4955 25.6747 89.5239 26.2161C89.5809 26.729 89.6094 27.8831 89.6094 28.5385V36.3179H82.4285Z" fill="#222222"/>
<path d="M121.412 36.8308C119.987 36.8308 118.776 36.5886 117.779 36.1042C116.781 35.6197 113.604 32.4709 112.806 31.2171L112.208 31.6446C112.493 31.9865 114.957 34.5939 115.043 34.9073C115.157 35.2208 115.214 35.6055 115.214 36.0614V36.3179H108.033V3.70445H115.214V12.3387C115.214 12.7946 115.157 13.1793 115.043 13.4928C114.957 13.8062 112.493 16.4136 112.208 16.7555L112.806 17.183C113.604 15.9291 116.781 12.7804 117.779 12.2959C118.776 11.8115 119.987 11.5693 121.412 11.5693C123.463 11.5693 125.287 12.1107 126.883 13.1935C128.479 14.2479 129.718 15.7439 130.602 17.6816C131.513 19.5909 131.969 21.7565 131.969 24.1787C131.969 26.6293 131.513 28.8235 130.602 30.7612C129.718 32.6704 128.479 34.1664 126.883 35.2493C125.287 36.3036 123.463 36.8308 121.412 36.8308ZM119.403 30.7185C120.999 30.7185 122.281 30.12 123.25 28.9232C124.219 27.6979 124.703 26.1164 124.703 24.1787C124.703 22.2695 124.219 20.7164 123.25 19.5196C122.281 18.2943 120.999 17.6816 119.403 17.6816C117.807 17.6816 116.525 18.28 115.556 19.4769C114.587 20.6737 114.103 22.241 114.103 24.1787C114.103 26.1449 114.587 27.7264 115.556 28.9232C116.525 30.12 117.807 30.7185 119.403 30.7185Z" fill="#222222"/>
<path d="M160.968 36.3179V12.0822H168.149V12.3387C168.149 12.7946 168.092 13.1793 167.978 13.4928C167.893 13.8062 165.713 16.1286 165.428 16.4706L166.026 16.898C166.824 15.6442 169.717 12.7804 170.714 12.2959C171.711 11.8115 172.922 11.5693 174.347 11.5693H175.416V18.4083H174.048C172.224 18.4083 170.856 18.8357 169.945 19.6906C169.318 20.289 168.862 21.1011 168.577 22.127C168.292 23.1528 168.149 24.4779 168.149 26.1021V36.3179H160.968Z" fill="#222222"/>
<path d="M177.859 36.3179V12.0822H185.04V12.3387C185.04 12.7946 184.983 13.1793 184.869 13.4928C184.783 13.8062 182.603 16.1286 182.318 16.4706L182.917 16.898C183.715 15.6442 186.607 12.7804 187.604 12.2959C188.602 11.8115 189.813 11.5693 191.238 11.5693C195.227 11.5693 197.834 12.9656 199.06 15.7582C199.487 16.6985 199.744 17.6531 199.829 18.622C199.943 19.5624 200 20.9444 200 22.7681V36.3179H192.819V22.6826C192.819 21.4858 192.734 20.5455 192.563 19.8616C192.42 19.1777 192.164 18.6362 191.793 18.2373C191.223 17.6389 190.34 17.3397 189.143 17.3397C187.661 17.3397 186.593 17.7529 185.937 18.5793C185.339 19.3771 185.04 20.7449 185.04 22.6826V36.3179H177.859Z" fill="#222222"/>
<path d="M70.5659 36.4047C68.1438 37.0538 65.8604 37.1198 63.7158 36.6029C61.5988 36.0786 59.7665 35.0208 58.2191 33.4294C56.6991 31.8306 55.611 29.8063 54.9546 27.3566C54.3203 24.9895 54.269 22.7611 54.8006 20.6716C55.3524 18.5472 56.4177 16.7425 57.9963 15.2574C59.5951 13.7375 61.6056 12.653 64.0278 12.004C66.45 11.355 68.7196 11.2926 70.8366 11.8169C72.9812 12.3338 74.8061 13.3641 76.3113 14.9079C77.844 16.4442 78.9275 18.396 79.5617 20.7631C80.2181 23.2128 80.2879 25.51 79.771 27.6545C79.2541 29.7991 78.1962 31.6314 76.5974 33.1513C75.0261 34.6639 73.0157 35.7483 70.5659 36.4047ZM69.4154 32.1109C70.5185 31.8153 71.5176 30.9281 72.1161 29.5287C72.7073 28.1017 72.2285 24.4981 71.7122 22.5714C71.2181 20.7272 69.9831 17.99 68.7449 17.1123C67.5342 16.2271 66.2662 15.9621 65.1673 16.2566C64.0683 16.551 63.0752 17.4219 62.4142 18.8086C61.7807 20.1878 62.1536 23.4511 62.6477 25.2952C63.1714 27.2495 64.4985 30.3307 65.7441 31.236C66.9897 32.1413 68.3123 32.4064 69.4154 32.1109Z" fill="#222222"/>
<path d="M43.6476 36.4004C41.2254 37.0495 38.942 37.1155 36.7975 36.5986C34.6804 36.0743 32.8482 35.0165 31.3007 33.4251C29.7808 31.8263 28.6926 29.802 28.0362 27.3523C27.4019 24.9852 27.3506 22.7568 27.8823 20.6673C28.4341 18.5429 29.4993 16.7382 31.0779 15.2531C32.6767 13.7332 34.6872 12.6487 37.1094 11.9997C39.5316 11.3507 41.8012 11.2883 43.9183 11.8126C46.0628 12.3295 47.8877 13.3598 49.3929 14.9035C50.9256 16.4399 52.0091 18.3917 52.6434 20.7588C53.2998 23.2085 53.3695 25.5057 52.8526 27.6502C52.3357 29.7948 51.2779 31.6271 49.6791 33.147C48.1078 34.6596 46.0973 35.744 43.6476 36.4004ZM42.497 32.1066C43.6001 31.811 44.5992 30.9238 45.1978 29.5243C45.7889 28.0974 45.3839 24.7691 44.8676 22.8423C44.3735 20.9982 43.0648 17.9857 41.8265 17.108C40.6158 16.2228 39.3478 15.9578 38.2489 16.2523C37.15 16.5467 36.1568 17.4176 35.4958 18.8043C34.8624 20.1835 35.2352 23.4467 35.7294 25.2909C36.253 27.2452 37.5802 30.3264 38.8258 31.2317C40.0714 32.137 41.394 32.4021 42.497 32.1066Z" fill="#222222"/>
<path fill-rule="evenodd" clip-rule="evenodd" d="M152.733 12.1095C151.84 11.3685 150.988 10.5747 150.283 9.65208C146.271 4.4046 148.349 0 148.349 0C141.797 3.80607 140.542 5.34603 139.555 8.82583C139.458 9.16713 139.414 9.52228 139.414 9.87703C139.414 9.87703 139.479 12.2888 140.429 14.6266C140.727 15.3581 140.395 16.214 139.639 16.4344C139.015 16.6164 138.373 16.3075 138.109 15.7321C137.681 14.8 136.832 13.0327 136.994 11.9872C135.814 13.5573 135.034 15.467 134.834 17.5851C134.799 17.9481 134.783 18.3093 134.785 18.6679L134.765 18.6647V25.4895C134.765 27.3132 134.808 28.7095 134.894 29.6784C135.008 30.6187 135.278 31.5591 135.706 32.4995C136.931 35.292 139.538 36.6883 143.528 36.6883C144.953 36.6883 146.164 36.4461 147.161 35.9617C148.158 35.4773 151.051 32.3285 151.849 31.0747L152.447 31.5021C152.424 31.5294 152.389 31.571 152.345 31.6248L152.344 31.6251C151.825 32.2459 149.959 34.4764 149.854 34.7649C149.768 35.0783 149.726 35.463 149.726 35.9189V36.1754H156.907V20.7544C157.131 17.2024 155.252 14.1988 152.733 12.1095ZM150.023 21.4021L150.028 20.0312C150.03 19.0922 149.902 17.7765 149.603 17.1926C149.318 16.67 148.909 16.2312 148.343 15.8606C146.463 14.6431 145.668 12.3143 145.664 12.2923L145.541 11.9263L145.286 12.2175C143.969 13.7305 144.662 15.8168 145.022 16.646C145.321 17.3251 145.382 18.623 145.194 19.2625C144.816 20.5518 143.819 21.4361 142.935 21.7602C142.051 22.0842 141.911 22.0836 141.911 22.0836L141.946 26.1449C141.946 27.3417 142.018 28.2821 142.16 28.966C142.331 29.6499 142.602 30.1913 142.972 30.5902C143.542 31.1886 144.425 31.4878 145.622 31.4878C147.104 31.4878 148.173 31.0746 148.828 30.2483C149.427 29.4219 150.011 28.0541 150.011 26.1449L150.023 21.4023L150.023 21.4021Z" fill="#222222"/>
</svg>
