<svg width="31" height="32" viewBox="0 0 31 32" fill="none" xmlns="http://www.w3.org/2000/svg">
<path d="M31 16.3555C31 15.04 30.8945 14.08 30.6661 13.0845H15.8163V19.0222H24.5328C24.3571 20.4978 23.4082 22.72 21.2993 24.2133L21.2697 24.412L25.9649 28.0916L26.2902 28.1245C29.2777 25.3333 31 21.2266 31 16.3555Z" fill="#4285F4"/>
<path d="M15.8163 32C20.0867 32 23.6717 30.5777 26.2902 28.1245L21.2993 24.2133C19.9637 25.1555 18.1711 25.8133 15.8163 25.8133C11.6338 25.8133 8.08395 23.0222 6.81852 19.1645L6.63304 19.1804L1.75087 23.0026L1.68703 23.1822C4.28791 28.4088 9.63032 32 15.8163 32Z" fill="#34A853"/>
<path d="M6.81853 19.1645C6.48463 18.1689 6.2914 17.1022 6.2914 16C6.2914 14.8977 6.48463 13.8311 6.80096 12.8355L6.79211 12.6235L1.84877 8.73988L1.68703 8.81771C0.615086 10.9866 0 13.4222 0 16C0 18.5778 0.615086 21.0132 1.68703 23.1822L6.81853 19.1645Z" fill="#FBBC05"/>
<path d="M15.8163 6.18663C18.7862 6.18663 20.7896 7.4844 21.9319 8.56892L26.3956 4.16C23.6542 1.58223 20.0867 0 15.8163 0C9.63032 0 4.28791 3.59108 1.68703 8.81771L6.80095 12.8355C8.08395 8.97777 11.6338 6.18663 15.8163 6.18663Z" fill="#EB4335"/>
</svg>
