<svg width="32" height="32" viewBox="0 0 32 32" fill="none" xmlns="http://www.w3.org/2000/svg">
<defs>
<radialGradient id="paint0_radial" cx="0" cy="0" r="1" gradientUnits="userSpaceOnUse" gradientTransform="translate(21.2381 32.2828) rotate(-105.558) scale(37.2836 39.298)">
<stop stop-color="#2E7DF3"/>
<stop offset="1" stop-color="#4BBAF8"/>
</radialGradient>
</defs>
<path d="M16 2.66666C8.63996 2.66666 2.66663 8.63999 2.66663 16C2.66663 23.36 8.63996 29.3333 16 29.3333C23.36 29.3333 29.3333 23.36 29.3333 16C29.3333 8.63999 23.36 2.66666 16 2.66666ZM15.8 24C14.8666 24 14.12 23.2533 14.12 22.32C14.12 21.3733 14.8666 20.6533 15.8 20.6533C16.7466 20.6533 17.4666 21.3733 17.4666 22.32C17.4666 23.24 16.7466 24 15.8 24ZM19.8133 14.1333C18.8 15.6133 17.84 16.08 17.32 17.0267C17.2 17.2533 17.12 17.44 17.0666 17.8133C16.9866 18.4267 16.4933 18.9067 15.8666 18.9067H15.8133C15.1066 18.9067 14.5466 18.3067 14.6133 17.6C14.6533 17.16 14.76 16.6933 15.0133 16.2667C15.6666 15.1067 16.9066 14.4133 17.6266 13.3867C18.3866 12.3067 17.96 10.28 15.8 10.28C14.8133 10.28 14.1866 10.8 13.7866 11.4133C13.4933 11.8667 12.88 12.0267 12.36 11.8133C11.6933 11.5333 11.4 10.7067 11.8133 10.0933C12.6266 8.87999 13.9866 7.99999 15.7733 7.99999C17.7466 7.99999 19.0933 8.89332 19.7866 10.0267C20.3733 10.9867 20.72 12.7867 19.8133 14.1333Z" fill="url(#paint0_radial)"/>
</svg>
